<?xml version="1.0" encoding="UTF-8"?>
<svg version="1.1" xmlns="http://www.w3.org/2000/svg" width="180" height="180">
<path d="M0 0 C5.71521459 2.96751527 9.39517383 7.13914111 12 13 C13.155 12.9175 14.31 12.835 15.5 12.75 C20.36557159 12.76728445 24.08983189 14.10324702 28 17 C30.53477267 20.45650818 31.01261188 22.28112288 30.9375 26.5625 C29.92852884 30.26206092 28.60392874 32.22807586 26 35 C26.56267578 35.76570313 26.56267578 35.76570313 27.13671875 36.546875 C37.7144789 51.57422192 39.37568608 66.19665389 39 84 C39.95261719 84.46019531 40.90523437 84.92039062 41.88671875 85.39453125 C45.11642972 87.06004092 46.36203038 87.81026968 48 91 C49.00841547 95.46583992 49.3825574 97.85232781 47.9375 102.1875 C44.27666683 107.50161267 40.22586071 110.36941743 34 112 C38.06954343 117.47354665 38.06954343 117.47354665 42.3125 122.8125 C45.42055828 126.84146444 45.51248441 131.0894676 45 136 C43.29073266 140.67799482 41.18960698 143.30668123 37 146 C34.1875 146.75 34.1875 146.75 32 147 C32.061875 147.886875 32.12375 148.77375 32.1875 149.6875 C31.97078532 153.51612605 31.45581885 155.06886137 29 158 C25.12160939 160.20535937 22.26159647 161.14418971 17.875 160.8125 C13.78639244 160.5593503 13.78639244 160.5593503 11.3125 163.875 C10.1678125 165.421875 10.1678125 165.421875 9 167 C4.70530938 169.38509347 0.3629345 169.30233025 -4.42700195 169.30639648 C-5.26344238 169.31472 -6.09988281 169.32304352 -6.96166992 169.33161926 C-9.72058805 169.35566935 -12.47926948 169.36448545 -15.23828125 169.37109375 C-17.16253224 169.38006418 -19.08678252 169.38918611 -21.0110321 169.39845276 C-25.04342339 169.41493196 -29.07573175 169.42264087 -33.1081543 169.42553711 C-38.26305 169.43091843 -43.41716118 169.46859281 -48.57183552 169.51428127 C-52.54653231 169.54409491 -56.5210412 169.55126161 -60.49584007 169.55226326 C-62.39557677 169.55645734 -64.29531445 169.56885889 -66.19494057 169.58978081 C-68.85881056 169.61678371 -71.52087528 169.61184378 -74.18481445 169.59936523 C-75.35015968 169.62161667 -75.35015968 169.62161667 -76.53904724 169.64431763 C-82.39248279 169.56664622 -86.47679019 167.7297346 -91 164 C-91.33 163.34 -91.66 162.68 -92 162 C-93.88414354 161.65716206 -95.78430419 161.40052684 -97.6875 161.1875 C-103.37233933 160.34154177 -106.11613306 159.19877507 -110 155 C-111.60725635 151.78548731 -111.05748185 148.56387464 -111 145 C-112.03125 144.979375 -113.0625 144.95875 -114.125 144.9375 C-118.59479815 143.85609722 -120.10640149 142.65972138 -122.83203125 139.09375 C-125.5319539 134.25375489 -125.49402232 129.81141517 -124.0625 124.5625 C-122.94674928 122.20287407 -121.80526155 120.8114495 -119.91015625 118.9765625 C-117.33984447 116.40185703 -115.58404984 114.28962731 -114 111 C-114.14461977 107.43398103 -114.72726407 104.33046413 -115.51049805 100.86865234 C-119.01660236 84.75264562 -119.25942849 65.44364946 -113 50 C-112.525625 48.81792969 -112.05125 47.63585938 -111.5625 46.41796875 C-107.48348072 37.36764472 -102.0052852 30.84165811 -95 24 C-94.35417969 23.33355469 -93.70835938 22.66710937 -93.04296875 21.98046875 C-78.44893028 7.89515493 -56.13313902 2.44591748 -36.421875 2.734375 C-29.18671824 3.29600817 -21.88382307 4.70539231 -15 7 C-14.21625 6.030625 -13.4325 5.06125 -12.625 4.0625 C-9.07906905 -0.3232567 -5.53709534 -0.74378893 0 0 Z " fill="#EEA3B5" transform="translate(128,5)"/>
<path d="M0 0 C5.71521459 2.96751527 9.39517383 7.13914111 12 13 C13.155 12.9175 14.31 12.835 15.5 12.75 C20.36557159 12.76728445 24.08983189 14.10324702 28 17 C30.53477267 20.45650818 31.01261188 22.28112288 30.9375 26.5625 C29.92852884 30.26206092 28.60392874 32.22807586 26 35 C26.56267578 35.76570313 26.56267578 35.76570313 27.13671875 36.546875 C37.7144789 51.57422192 39.37568608 66.19665389 39 84 C39.95261719 84.46019531 40.90523437 84.92039062 41.88671875 85.39453125 C45.11642972 87.06004092 46.36203038 87.81026968 48 91 C49.00841547 95.46583992 49.3825574 97.85232781 47.9375 102.1875 C44.27666683 107.50161267 40.22586071 110.36941743 34 112 C38.06954343 117.47354665 38.06954343 117.47354665 42.3125 122.8125 C45.42055828 126.84146444 45.51248441 131.0894676 45 136 C43.29073266 140.67799482 41.18960698 143.30668123 37 146 C34.1875 146.75 34.1875 146.75 32 147 C32.061875 147.886875 32.12375 148.77375 32.1875 149.6875 C31.97078532 153.51612605 31.45581885 155.06886137 29 158 C25.12160939 160.20535937 22.26159647 161.14418971 17.875 160.8125 C13.78639244 160.5593503 13.78639244 160.5593503 11.3125 163.875 C10.1678125 165.421875 10.1678125 165.421875 9 167 C4.70530938 169.38509347 0.3629345 169.30233025 -4.42700195 169.30639648 C-5.26344238 169.31472 -6.09988281 169.32304352 -6.96166992 169.33161926 C-9.72058805 169.35566935 -12.47926948 169.36448545 -15.23828125 169.37109375 C-17.16253224 169.38006418 -19.08678252 169.38918611 -21.0110321 169.39845276 C-25.04342339 169.41493196 -29.07573175 169.42264087 -33.1081543 169.42553711 C-38.26305 169.43091843 -43.41716118 169.46859281 -48.57183552 169.51428127 C-52.54653231 169.54409491 -56.5210412 169.55126161 -60.49584007 169.55226326 C-62.39557677 169.55645734 -64.29531445 169.56885889 -66.19494057 169.58978081 C-68.85881056 169.61678371 -71.52087528 169.61184378 -74.18481445 169.59936523 C-75.35015968 169.62161667 -75.35015968 169.62161667 -76.53904724 169.64431763 C-82.39248279 169.56664622 -86.47679019 167.7297346 -91 164 C-91.33 163.34 -91.66 162.68 -92 162 C-93.88414354 161.65716206 -95.78430419 161.40052684 -97.6875 161.1875 C-103.37233933 160.34154177 -106.11613306 159.19877507 -110 155 C-111.60725635 151.78548731 -111.05748185 148.56387464 -111 145 C-112.03125 144.979375 -113.0625 144.95875 -114.125 144.9375 C-118.59479815 143.85609722 -120.10640149 142.65972138 -122.83203125 139.09375 C-125.5319539 134.25375489 -125.49402232 129.81141517 -124.0625 124.5625 C-122.94674928 122.20287407 -121.80526155 120.8114495 -119.91015625 118.9765625 C-117.33984447 116.40185703 -115.58404984 114.28962731 -114 111 C-114.14461977 107.43398103 -114.72726407 104.33046413 -115.51049805 100.86865234 C-119.01660236 84.75264562 -119.25942849 65.44364946 -113 50 C-112.525625 48.81792969 -112.05125 47.63585938 -111.5625 46.41796875 C-107.48348072 37.36764472 -102.0052852 30.84165811 -95 24 C-94.35417969 23.33355469 -93.70835938 22.66710937 -93.04296875 21.98046875 C-78.44893028 7.89515493 -56.13313902 2.44591748 -36.421875 2.734375 C-29.18671824 3.29600817 -21.88382307 4.70539231 -15 7 C-14.21625 6.030625 -13.4325 5.06125 -12.625 4.0625 C-9.07906905 -0.3232567 -5.53709534 -0.74378893 0 0 Z M-6 6 C-6.66 6.66 -7.32 7.32 -8 8 C-7.9049261 10.0480428 -7.9049261 10.0480428 -7 12 C-6.01 12.66 -5.02 13.32 -4 14 C-4.33 15.32 -4.66 16.64 -5 18 C-8.18102057 17.007136 -11.1587005 15.92455863 -14.171875 14.4921875 C-30.02373384 7.32770108 -49.20645682 7.34876851 -65.4609375 13.45703125 C-66.62882812 13.96621094 -67.79671875 14.47539062 -69 15 C-69.61262695 15.25700684 -70.22525391 15.51401367 -70.85644531 15.77880859 C-79.5291115 19.46752223 -86.43268443 24.2270989 -93 31 C-93.73089844 31.73347656 -94.46179688 32.46695313 -95.21484375 33.22265625 C-109.32347541 48.11947963 -111.66773985 67.62352564 -111.15820312 87.25048828 C-110.87040252 92.25235619 -109.80063982 96.98443089 -108.6953125 101.8671875 C-106.88504181 110.02357568 -106.88504181 110.02357568 -108 114 C-110.02630519 117.01514212 -112.4406475 119.4406475 -115 122 C-117.81920167 125.29230908 -118.61045386 127.57378744 -118.40234375 132.02734375 C-118.06309127 134.3013323 -118.06309127 134.3013323 -116.0625 137 C-111.95087582 139.68514232 -108.77247406 139.46788961 -104 139 C-104.13019531 139.81984375 -104.26039062 140.6396875 -104.39453125 141.484375 C-105.41044572 147.93820349 -105.41044572 147.93820349 -103.25 153.8125 C-98.39596332 155.58609033 -94.02775674 154.81007639 -89 154 C-88.4121875 155.3921875 -88.4121875 155.3921875 -87.8125 156.8125 C-85.80456822 160.34369037 -84.72424885 161.47644365 -81 163 C-78.66709434 163.04467266 -76.33281278 163.04928478 -74 163 C-73.52949219 162.03578125 -73.05898437 161.0715625 -72.57421875 160.078125 C-71.94552821 158.80197704 -71.31660993 157.52594126 -70.6875 156.25 C-70.37876953 155.61578125 -70.07003906 154.9815625 -69.75195312 154.328125 C-68.089649 150.96852088 -66.38120835 147.90141079 -64 145 C-64.78503906 144.75765625 -65.57007813 144.5153125 -66.37890625 144.265625 C-75.99975035 141.19639866 -75.99975035 141.19639866 -79.5625 138.8125 C-83.0779905 136.95887773 -84.81458135 136.74643809 -88.6875 136.5625 C-93.67699471 136.24037603 -93.67699471 136.24037603 -96.6875 134 C-98.48338471 129.89512066 -98.79947895 126.40949731 -98 122 C-96.4375 119.5 -96.4375 119.5 -94 118 C-91.67085177 117.63858045 -89.33746522 117.30300475 -87 117 C-84.89172945 113.83759418 -84.66182535 112.49342531 -84.375 108.8125 C-84.30023438 107.91144531 -84.22546875 107.01039062 -84.1484375 106.08203125 C-84.09945312 105.39496094 -84.05046875 104.70789063 -84 104 C-83.27554688 104.03480469 -82.55109375 104.06960937 -81.8046875 104.10546875 C-76.12280263 104.26456153 -71.82965069 104.38075548 -67 101 C-65.14684743 98.95053601 -65.14684743 98.95053601 -64 97 C-59.25 97.875 -59.25 97.875 -57 99 C-51.61035609 99.35341927 -48.41956538 99.409379 -44 96 C-42.24850835 94.41754725 -42.24850835 94.41754725 -41 93 C-37.63061102 94.12312966 -36.46825907 95.53174093 -34 98 C-30.43528609 99.18823797 -27.7441664 99.26274852 -24 99 C-22.64377755 98.03126968 -21.30582947 97.03565785 -20 96 C-18.0625 95.9375 -18.0625 95.9375 -16 97 C-14.2856382 98.95927063 -12.61594832 100.95880212 -11 103 C-6.40456709 105.29771645 0.17247654 104.24581251 5 103 C4.9175 104.19625 4.835 105.3925 4.75 106.625 C4.79029755 111.16250428 5.70701552 113.70701552 9 117 C11.30385944 117.44809009 13.529079 117.564033 15.87109375 117.6875 C18 118 18 118 20.5625 120.0625 C22.42227556 123.86291093 22.96395146 126.85081762 22 131 C19.53818102 134.40310271 18.02774582 135.74830715 13.9375 136.75 C12.968125 136.8325 11.99875 136.915 11 137 C5.87855079 137.95813304 1.22740448 140.50475134 -3.4921875 142.625 C-6.72283157 143.89135491 -9.5691702 144.58032663 -13 145 C-11.92851916 147.15292894 -10.84618418 149.29900645 -9.74609375 151.4375 C-9.31425781 152.283125 -8.88242188 153.12875 -8.4375 154 C-8.00308594 154.845625 -7.56867188 155.69125 -7.12109375 156.5625 C-6.12654496 158.72486392 -5.47847721 160.67750386 -5 163 C-0.03317768 163.29216602 3.10349334 163.24708889 7 160 C8.82629794 156.93319201 8.82629794 156.93319201 10 154 C10.90363281 154.03480469 11.80726563 154.06960937 12.73828125 154.10546875 C14.50751953 154.14607422 14.50751953 154.14607422 16.3125 154.1875 C17.48425781 154.22230469 18.65601563 154.25710937 19.86328125 154.29296875 C22.92471654 154.24653638 22.92471654 154.24653638 24.875 152.8125 C26.34713446 150.44072781 26.50731741 148.5873119 26.6875 145.8125 C26.78611328 144.46091797 26.78611328 144.46091797 26.88671875 143.08203125 C26.92410156 142.39496094 26.96148437 141.70789063 27 141 C28.2375 140.938125 29.475 140.87625 30.75 140.8125 C34.05392763 140.390722 34.88031108 140.10472781 37.5 137.8125 C39.29829012 134.44070602 39.43740988 132.78313015 39 129 C37.13842359 126.05846569 37.13842359 126.05846569 34.625 123.375 C30.1256061 118.27568691 30.1256061 118.27568691 28.9375 115.66796875 C28.628125 115.11753906 28.31875 114.56710938 28 114 C26.80375 113.979375 25.6075 113.95875 24.375 113.9375 C21.03802288 113.71219315 20.1372706 113.14279022 17.765625 110.67578125 C11.87696936 102.6272355 8.5764762 96.12777872 10 86 C11.30288036 83.00453845 12.34129579 82.14959064 15 80 C19.09362917 78.73469644 21.17078883 78.69107819 25.1875 80.1875 C27.85489494 81.90648785 29.88754364 83.64379867 32 86 C35.59485305 73.95870361 32.51490319 59.84023743 27.4921875 48.63671875 C24.0830588 42.3972204 20.05014763 37.63351911 14.72265625 32.9375 C13 31 13 31 13 27 C13.62648437 27.15597656 14.25296875 27.31195313 14.8984375 27.47265625 C15.71570313 27.66730469 16.53296875 27.86195312 17.375 28.0625 C18.18710938 28.25972656 18.99921875 28.45695312 19.8359375 28.66015625 C22.04161284 29.22109319 22.04161284 29.22109319 24 28 C24.33425735 25.62625139 24.33425735 25.62625139 24 23 C21.49389469 20.28931466 20.05185532 20.00413739 16.328125 19.70703125 C14.96843965 19.72683249 13.6089066 19.76240798 12.25 19.8125 C11.55261719 19.82603516 10.85523438 19.83957031 10.13671875 19.85351562 C8.42414459 19.8887055 6.71197059 19.94250845 5 20 C4.83564453 18.96939453 4.83564453 18.96939453 4.66796875 17.91796875 C4.50941406 17.01691406 4.35085937 16.11585937 4.1875 15.1875 C4.03667969 14.29417969 3.88585937 13.40085937 3.73046875 12.48046875 C2.93073643 9.76480017 2.23555404 8.69556514 0 7 C-3.00967326 6.09533679 -3.00967326 6.09533679 -6 6 Z " fill="#61362D" transform="translate(128,5)"/>
<path d="M0 0 C5 2 5 2 7.2734375 3.11328125 C10.64720781 4.21048162 12.94398549 3.82685726 16.4375 3.3125 C22.61715632 2.70489133 22.61715632 2.70489133 26 5.3125 C26.41507812 5.7765625 26.83015625 6.240625 27.2578125 6.71875 C31.26996862 9.66939396 37.16675342 9.51954374 42 10 C42.226875 11.051875 42.45375 12.10375 42.6875 13.1875 C43.8920199 17.25481721 45.49785194 19.46653119 49 22 C51.39421115 22.51391926 53.66450723 22.74603676 56.109375 22.859375 C58 23 58 23 59 24 C59.5789111 30.25223983 59.5789111 30.25223983 57.5 32.9375 C54.56235852 34.18599763 52.24432683 34.07142471 49.09765625 33.71484375 C46.79063188 33.84512563 46.79063188 33.84512563 44.7109375 35.8359375 C41.53868633 38.36825327 38.38981372 39.53379663 34.5625 40.6875 C33.86745361 40.90245117 33.17240723 41.11740234 32.45629883 41.33886719 C26.54976355 43.05727822 20.94883552 43.66102716 14.79296875 43.859375 C11.91578705 43.87911418 11.91578705 43.87911418 9 45 C-7.18034667 46.49319387 -23.92209293 43.39837941 -38.00390625 35.40234375 C-41.87318579 33.59129896 -44.8346426 33.54780609 -49.01171875 34.14453125 C-51 34 -51 34 -52.7890625 32.21484375 C-54.45056834 29.17589597 -53.81958689 27.27834757 -53 24 C-50.54993602 23.34036739 -48.49894115 22.97954862 -45.9375 22.875 C-42.65441697 22.26909598 -42.65441697 22.26909598 -41.1875 18.75 C-40.25531968 15.80627269 -39.56787818 13.02173709 -39 10 C-38.26394531 9.89042969 -37.52789062 9.78085938 -36.76953125 9.66796875 C-29.40943367 8.57693265 -29.40943367 8.57693265 -23 5 C-22.67 4.34 -22.34 3.68 -22 3 C-21.175 3.165 -20.35 3.33 -19.5 3.5 C-12.18937154 4.54437549 -7.52569254 4.32943497 -1 1 C-0.67 0.67 -0.34 0.34 0 0 Z " fill="#FAE6C7" transform="translate(87,104)"/>
<path d="M0 0 C3.14052469 0.75652315 4.24572627 2.8453485 5.9296875 5.46484375 C10.39106739 8.43909701 14.69743684 7.96351867 19.9296875 7.46484375 C23.16974813 6.11481849 24.44942509 5.2652811 26.2421875 2.27734375 C27.9296875 0.46484375 27.9296875 0.46484375 31.7421875 -0.28515625 C34.5382481 -0.15642418 35.62326045 0.18657849 37.71484375 2.0859375 C41.46760995 6.9636115 43.9296875 11.21958663 43.9296875 17.46484375 C24.4596875 17.46484375 4.9896875 17.46484375 -15.0703125 17.46484375 C-14.09880942 12.60732835 -12.96127568 10.29949538 -10.31640625 6.3359375 C-8.98362218 4.40489349 -8.98362218 4.40489349 -7.7578125 1.96484375 C-5.37684631 -0.15157064 -3.09969397 -0.14192738 0 0 Z " fill="#F9F7F4" transform="translate(74.0703125,151.53515625)"/>
<path d="M0 0 C2.50251088 1.72586957 2.92751611 2.71665389 3.6875 5.6875 C3.790625 6.450625 3.89375 7.21375 4 8 C4.680625 7.484375 5.36125 6.96875 6.0625 6.4375 C9.92635729 4.54667622 11.90081728 4.80751048 16 6 C18.5 8.125 18.5 8.125 20 11 C20.19530219 14.58054006 19.93990889 16.81055778 17.67578125 19.67578125 C12.30944995 24.71688035 6.38441686 26.24142381 -0.625 27.8125 C-5.48443415 26.64263622 -6.88165576 23.75030289 -9.51953125 19.67578125 C-12.30672 14.63825014 -13.62454335 10.82907127 -13 5 C-9.42191609 -0.67558137 -6.42694519 -1.6067363 0 0 Z " fill="#DE5885" transform="translate(153,88)"/>
<path d="M0 0 C0.56332031 0.31839844 1.12664062 0.63679688 1.70703125 0.96484375 C4.14852339 2.06705059 6.0296889 2.35602542 8.6875 2.5625 C12.90035587 2.90035587 12.90035587 2.90035587 14 4 C14.5789111 10.25223983 14.5789111 10.25223983 12.5 12.9375 C9.56235852 14.18599763 7.24432683 14.07142471 4.09765625 13.71484375 C1.7950595 13.84259577 1.7950595 13.84259577 -0.25 15.828125 C-3.67619498 18.53404035 -6.92395557 19.57966137 -11.0625 20.8125 C-12.12307617 21.15571289 -12.12307617 21.15571289 -13.20507812 21.50585938 C-19.55907817 23.45680587 -19.55907817 23.45680587 -23 22 C-20.12058058 20.08038705 -17.32640688 18.75363335 -14.1875 17.3125 C-8.23917895 14.34912845 -3.72406009 11.32705276 -1.203125 5 C-0.54343219 2.89349119 -0.54343219 2.89349119 0 0 Z " fill="#F2CDA4" transform="translate(132,124)"/>
<path d="M0 0 C3.4375 0.875 3.4375 0.875 5.4375 3.875 C5.25 7.4375 5.25 7.4375 4.4375 10.875 C1.4375 12.875 1.4375 12.875 -1.5625 12.75 C-4.5625 11.875 -4.5625 11.875 -6.5 10.125 C-7.5625 7.875 -7.5625 7.875 -7.4375 5.3125 C-5.82990391 0.83419661 -4.92782971 -0.17290631 0 0 Z " fill="#683D32" transform="translate(60.5625,119.125)"/>
<path d="M0 0 C2.4375 2.0625 2.4375 2.0625 4 4 C3.67 4.99 3.34 5.98 3 7 C-0.875 6.125 -0.875 6.125 -2 5 C-5.52637472 4.84327223 -8.61905851 4.95971031 -12 6 C-12 4.68 -12 3.36 -12 2 C-8.02440416 -1.49370544 -4.97377518 -1.35648414 0 0 Z " fill="#6F4336" transform="translate(122,124)"/>
<path d="M0 0 C2.28805446 0.50845655 4.1938103 1.09428609 6.3125 2.125 C9.87656883 3.2853945 12.3729989 2.80600025 16 2 C16.99 1.34 17.98 0.68 19 0 C21.1875 0.375 21.1875 0.375 23 1 C18.25454265 5.90363926 18.25454265 5.90363926 14.35546875 6.203125 C13.31003906 6.21859375 12.26460937 6.2340625 11.1875 6.25 C10.14980469 6.27578125 9.11210938 6.3015625 8.04296875 6.328125 C4.58857076 5.95563536 2.71609241 5.14877551 0 3 C0 2.01 0 1.02 0 0 Z " fill="#6A3D31" transform="translate(78,137)"/>
<path d="M0 0 C5.61 0.33 11.22 0.66 17 1 C13.73543073 4.26456927 13.3742569 4.43101616 9.0625 4.4375 C7.78052734 4.46650391 7.78052734 4.46650391 6.47265625 4.49609375 C4 4 4 4 0 0 Z " fill="#F4DEBF" transform="translate(80,153)"/>
<path d="M0 0 C-1 3 -1 3 -3.8125 4.6875 C-7 6 -7 6 -11 6 C-10.8125 4.125 -10.8125 4.125 -10 2 C-6.62176024 0.12320013 -3.82367701 -0.21849583 0 0 Z " fill="#FAECF0" transform="translate(165,107)"/>
<path d="M0 0 C-0.33 0.66 -0.66 1.32 -1 2 C-3.31 2 -5.62 2 -8 2 C-8 1.34 -8 0.68 -8 0 C-4.71303767 -0.79953138 -3.28976808 -1.09658936 0 0 Z " fill="#61372D" transform="translate(94,141)"/>
<path d="M0 0 C0.99 0.33 1.98 0.66 3 1 C2.67 2.32 2.34 3.64 2 5 C1.01 5 0.02 5 -1 5 C-0.67 3.35 -0.34 1.7 0 0 Z " fill="#FBF3F4" transform="translate(166,101)"/>
</svg>
